# MagicaVoxel @ Ephtracy

# group
o 

# material
mtllib Side_A.mtl
usemtl palette

# normals
vn -1 0 0
vn 1 0 0
vn 0 0 1
vn 0 0 -1
vn 0 -1 0
vn 0 1 0

# texcoords
vt 0.681641 0.5
vt 0.685547 0.5

# verts
v 0 2 -1.4
v 0 2 -1.5
v 0 2 -1.6
v 0 2.3 -1.4
v 0 2.3 -1.5
v 0 2.3 -1.6
v 0 2.4 -1.4
v 0 2.4 -1.5
v 0 2.4 -1.6
v 0 2.5 -1.4
v 0 2.5 -1.5
v 0 6.4 -1.4
v 0 6.4 -1.5
v 0 6.4 -1.6
v 0 6.5 -1.4
v 0 6.5 -1.5
v 0 6.6 -1.4
v 0 6.6 -1.5
v 0 6.6 -1.6
v 0 6.8 -1.4
v 0 6.8 -1.5
v 0 6.8 -1.6
v 1.6 2 -1.4
v 1.6 2 -1.5
v 1.6 2 -1.6
v 1.6 2.3 -1.4
v 1.6 2.3 -1.5
v 1.6 2.3 -1.6
v 1.6 2.4 -1.4
v 1.6 2.4 -1.5
v 1.6 2.4 -1.6
v 1.6 2.5 -1.4
v 1.6 2.5 -1.5
v 1.6 6.4 -1.4
v 1.6 6.4 -1.5
v 1.6 6.4 -1.6
v 1.6 6.5 -1.4
v 1.6 6.5 -1.5
v 1.6 6.6 -1.4
v 1.6 6.6 -1.5
v 1.6 6.6 -1.6
v 1.6 6.8 -1.4
v 1.6 6.8 -1.5
v 1.6 6.8 -1.6
v 0 2 -1.4
v 0 2.3 -1.4
v 0 2.4 -1.4
v 0 2.5 -1.4
v 0 6.4 -1.4
v 0 6.5 -1.4
v 0 6.6 -1.4
v 0 6.8 -1.4
v 1.6 2 -1.4
v 1.6 2.3 -1.4
v 1.6 2.4 -1.4
v 1.6 2.5 -1.4
v 1.6 6.4 -1.4
v 1.6 6.5 -1.4
v 1.6 6.6 -1.4
v 1.6 6.8 -1.4
v 0 2.3 -1.5
v 0 2.4 -1.5
v 0 2.5 -1.5
v 0 6.4 -1.5
v 0 6.5 -1.5
v 0 6.6 -1.5
v 1.6 2.3 -1.5
v 1.6 2.4 -1.5
v 1.6 2.5 -1.5
v 1.6 6.4 -1.5
v 1.6 6.5 -1.5
v 1.6 6.6 -1.5
v 0 2 -1.6
v 0 2.3 -1.6
v 0 2.4 -1.6
v 0 6.4 -1.6
v 0 6.6 -1.6
v 0 6.8 -1.6
v 1.6 2 -1.6
v 1.6 2.3 -1.6
v 1.6 2.4 -1.6
v 1.6 6.4 -1.6
v 1.6 6.6 -1.6
v 1.6 6.8 -1.6
v 0 2 -1.4
v 1.6 2 -1.4
v 0 2 -1.5
v 1.6 2 -1.5
v 0 2 -1.6
v 1.6 2 -1.6
v 0 2.4 -1.4
v 1.6 2.4 -1.4
v 0 2.4 -1.5
v 1.6 2.4 -1.5
v 0 6.4 -1.4
v 1.6 6.4 -1.4
v 0 6.4 -1.5
v 1.6 6.4 -1.5
v 0 6.6 -1.4
v 1.6 6.6 -1.4
v 0 6.6 -1.5
v 1.6 6.6 -1.5
v 0 2.3 -1.4
v 1.6 2.3 -1.4
v 0 2.3 -1.5
v 1.6 2.3 -1.5
v 0 2.5 -1.4
v 1.6 2.5 -1.4
v 0 2.5 -1.5
v 1.6 2.5 -1.5
v 0 6.5 -1.4
v 1.6 6.5 -1.4
v 0 6.5 -1.5
v 1.6 6.5 -1.5
v 0 6.8 -1.4
v 1.6 6.8 -1.4
v 0 6.8 -1.5
v 1.6 6.8 -1.5
v 0 6.8 -1.6
v 1.6 6.8 -1.6

# faces
f 4/2/1 2/2/1 1/2/1
f 5/1/1 3/1/1 2/1/1
f 5/2/1 2/2/1 4/2/1
f 6/1/1 3/1/1 5/1/1
f 8/2/1 6/2/1 5/2/1
f 9/2/1 6/2/1 8/2/1
f 10/2/1 8/2/1 7/2/1
f 11/1/1 9/1/1 8/1/1
f 11/2/1 8/2/1 10/2/1
f 13/1/1 9/1/1 11/1/1
f 14/1/1 9/1/1 13/1/1
f 15/2/1 13/2/1 12/2/1
f 15/2/1 14/2/1 13/2/1
f 16/2/1 14/2/1 15/2/1
f 18/2/1 14/2/1 16/2/1
f 19/2/1 14/2/1 18/2/1
f 20/2/1 18/2/1 17/2/1
f 21/1/1 19/1/1 18/1/1
f 21/2/1 18/2/1 20/2/1
f 22/1/1 19/1/1 21/1/1
f 23/2/2 24/2/2 26/2/2
f 24/1/2 25/1/2 27/1/2
f 26/2/2 24/2/2 27/2/2
f 27/1/2 25/1/2 28/1/2
f 27/2/2 28/2/2 30/2/2
f 30/2/2 28/2/2 31/2/2
f 29/2/2 30/2/2 32/2/2
f 30/1/2 31/1/2 33/1/2
f 32/2/2 30/2/2 33/2/2
f 33/1/2 31/1/2 35/1/2
f 35/1/2 31/1/2 36/1/2
f 34/2/2 35/2/2 37/2/2
f 35/2/2 36/2/2 37/2/2
f 37/2/2 36/2/2 38/2/2
f 38/2/2 36/2/2 40/2/2
f 40/2/2 36/2/2 41/2/2
f 39/2/2 40/2/2 42/2/2
f 40/1/2 41/1/2 43/1/2
f 42/2/2 40/2/2 43/2/2
f 43/1/2 41/1/2 44/1/2
f 53/2/3 46/2/3 45/2/3
f 54/2/3 46/2/3 53/2/3
f 55/2/3 48/2/3 47/2/3
f 56/2/3 48/2/3 55/2/3
f 57/2/3 50/2/3 49/2/3
f 58/2/3 50/2/3 57/2/3
f 59/2/3 52/2/3 51/2/3
f 60/2/3 52/2/3 59/2/3
f 67/2/3 62/2/3 61/2/3
f 68/2/3 62/2/3 67/2/3
f 69/1/3 64/1/3 63/1/3
f 70/1/3 64/1/3 69/1/3
f 71/2/3 66/2/3 65/2/3
f 72/2/3 66/2/3 71/2/3
f 73/1/4 74/1/4 79/1/4
f 74/2/4 75/2/4 80/2/4
f 79/1/4 74/1/4 80/1/4
f 75/1/4 76/1/4 81/1/4
f 80/2/4 75/2/4 81/2/4
f 76/2/4 77/2/4 82/2/4
f 81/1/4 76/1/4 82/1/4
f 77/1/4 78/1/4 83/1/4
f 82/2/4 77/2/4 83/2/4
f 83/1/4 78/1/4 84/1/4
f 87/2/5 86/2/5 85/2/5
f 88/2/5 86/2/5 87/2/5
f 89/1/5 88/1/5 87/1/5
f 90/1/5 88/1/5 89/1/5
f 93/2/5 92/2/5 91/2/5
f 94/2/5 92/2/5 93/2/5
f 97/2/5 96/2/5 95/2/5
f 98/2/5 96/2/5 97/2/5
f 101/2/5 100/2/5 99/2/5
f 102/2/5 100/2/5 101/2/5
f 103/2/6 104/2/6 105/2/6
f 105/2/6 104/2/6 106/2/6
f 107/2/6 108/2/6 109/2/6
f 109/2/6 108/2/6 110/2/6
f 111/2/6 112/2/6 113/2/6
f 113/2/6 112/2/6 114/2/6
f 115/2/6 116/2/6 117/2/6
f 117/2/6 116/2/6 118/2/6
f 117/1/6 118/1/6 119/1/6
f 119/1/6 118/1/6 120/1/6
