# MagicaVoxel @ Ephtracy

# group
o 

# material
mtllib MiddleSegment_4x4.mtl
usemtl palette

# normals
vn -1 0 0
vn 1 0 0
vn 0 0 1
vn 0 0 -1
vn 0 -1 0
vn 0 1 0

# texcoords
vt 0.908203 0.5
vt 0.939453 0.5
vt 0.943359 0.5

# verts
v 0.6 2 -0.7
v 0.6 2 -0.9
v 0.6 2.3 -0.7
v 0.6 2.3 -0.8
v 0.6 3.6 -0.7
v 0.6 3.6 -0.8
v 0.6 3.6 -0.9
v 0.7 2 -0.6
v 0.7 2 -0.7
v 0.7 2 -0.9
v 0.7 2 -1
v 0.7 2.3 -0.7
v 0.7 2.7 -0.9
v 0.7 2.7 -1
v 0.7 3.6 -0.6
v 0.7 3.6 -0.7
v 0.7 3.6 -0.9
v 0.7 3.6 -1
v 0.9 2 -0.6
v 0.9 2 -0.7
v 0.9 2 -0.9
v 0.9 2 -1
v 0.9 2.5 -0.9
v 0.9 2.7 -0.7
v 0.9 3.1 -0.6
v 0.9 3.1 -0.7
v 0.9 3.1 -0.9
v 0.9 3.1 -1
v 0.9 3.3 -0.7
v 0.9 3.6 -0.6
v 0.9 3.6 -0.7
v 0.9 3.6 -0.9
v 0.9 3.6 -1
v 1 2 -0.7
v 1 2 -0.8
v 1 2 -0.9
v 1 2.5 -0.8
v 1 2.5 -0.9
v 1 2.7 -0.7
v 1 2.7 -0.8
v 1 3.3 -0.7
v 1 3.3 -0.8
v 1 3.6 -0.7
v 1 3.6 -0.9
v 0.7 2 -0.6
v 0.7 3.6 -0.6
v 0.8 2 -0.6
v 0.8 3.1 -0.6
v 0.9 2 -0.6
v 0.9 3.1 -0.6
v 0.9 3.6 -0.6
v 0.6 2 -0.7
v 0.6 2.3 -0.7
v 0.6 3.6 -0.7
v 0.7 2 -0.7
v 0.7 2.3 -0.7
v 0.7 3.6 -0.7
v 0.9 2 -0.7
v 0.9 2.7 -0.7
v 0.9 3.1 -0.7
v 0.9 3.3 -0.7
v 0.9 3.6 -0.7
v 1 2 -0.7
v 1 2.7 -0.7
v 1 3.3 -0.7
v 1 3.6 -0.7
v 0.6 2 -0.9
v 0.6 3.6 -0.9
v 0.7 2 -0.9
v 0.7 2.7 -0.9
v 0.7 3.6 -0.9
v 0.9 2 -0.9
v 0.9 2.5 -0.9
v 0.9 3.1 -0.9
v 0.9 3.6 -0.9
v 1 2 -0.9
v 1 2.5 -0.9
v 1 3.6 -0.9
v 0.7 2 -1
v 0.7 2.7 -1
v 0.7 3.6 -1
v 0.8 2 -1
v 0.8 2.7 -1
v 0.8 3.1 -1
v 0.8 3.6 -1
v 0.9 2 -1
v 0.9 3.1 -1
v 0.9 3.6 -1
v 0.7 2 -0.6
v 0.8 2 -0.6
v 0.9 2 -0.6
v 0.6 2 -0.7
v 0.7 2 -0.7
v 0.8 2 -0.7
v 0.9 2 -0.7
v 1 2 -0.7
v 0.9 2 -0.8
v 1 2 -0.8
v 0.6 2 -0.9
v 0.7 2 -0.9
v 0.8 2 -0.9
v 0.9 2 -0.9
v 1 2 -0.9
v 0.7 2 -1
v 0.8 2 -1
v 0.9 2 -1
v 0.7 3.6 -0.6
v 0.9 3.6 -0.6
v 0.6 3.6 -0.7
v 0.7 3.6 -0.7
v 0.9 3.6 -0.7
v 1 3.6 -0.7
v 0.6 3.6 -0.8
v 0.7 3.6 -0.8
v 0.6 3.6 -0.9
v 0.7 3.6 -0.9
v 0.8 3.6 -0.9
v 0.9 3.6 -0.9
v 1 3.6 -0.9
v 0.7 3.6 -1
v 0.8 3.6 -1
v 0.9 3.6 -1

# faces
f 3/1/1 2/1/1 1/1/1
f 4/1/1 2/1/1 3/1/1
f 5/2/1 4/2/1 3/2/1
f 6/1/1 2/1/1 4/1/1
f 6/2/1 4/2/1 5/2/1
f 7/1/1 2/1/1 6/1/1
f 12/1/1 9/1/1 8/1/1
f 13/2/1 11/2/1 10/2/1
f 14/2/1 11/2/1 13/2/1
f 15/1/1 12/1/1 8/1/1
f 16/1/1 12/1/1 15/1/1
f 17/1/1 14/1/1 13/1/1
f 18/1/1 14/1/1 17/1/1
f 21/1/2 22/1/2 23/1/2
f 19/2/2 20/2/2 24/2/2
f 19/2/2 24/2/2 25/2/2
f 25/2/2 24/2/2 26/2/2
f 23/1/2 22/1/2 27/1/2
f 27/1/2 22/1/2 28/1/2
f 25/1/2 26/1/2 29/1/2
f 25/1/2 29/1/2 30/1/2
f 30/1/2 29/1/2 31/1/2
f 27/2/2 28/2/2 32/2/2
f 32/2/2 28/2/2 33/2/2
f 34/1/2 35/1/2 37/1/2
f 35/2/2 36/2/2 37/2/2
f 37/2/2 36/2/2 38/2/2
f 34/1/2 37/1/2 39/1/2
f 37/1/2 38/1/2 39/1/2
f 39/1/2 38/1/2 40/1/2
f 39/2/2 40/2/2 41/2/2
f 40/1/2 38/1/2 42/1/2
f 41/2/2 40/2/2 42/2/2
f 41/1/2 42/1/2 43/1/2
f 42/1/2 38/1/2 44/1/2
f 43/1/2 42/1/2 44/1/2
f 47/1/3 46/1/3 45/1/3
f 48/1/3 46/1/3 47/1/3
f 49/2/3 48/2/3 47/2/3
f 50/1/3 46/1/3 48/1/3
f 50/2/3 48/2/3 49/2/3
f 51/1/3 46/1/3 50/1/3
f 55/1/3 53/1/3 52/1/3
f 56/2/3 54/2/3 53/2/3
f 56/1/3 53/1/3 55/1/3
f 57/2/3 54/2/3 56/2/3
f 63/1/3 59/1/3 58/1/3
f 64/2/3 60/2/3 59/2/3
f 64/1/3 59/1/3 63/1/3
f 64/2/3 61/2/3 60/2/3
f 65/1/3 62/1/3 61/1/3
f 65/2/3 61/2/3 64/2/3
f 66/1/3 62/1/3 65/1/3
f 67/1/4 68/1/4 69/1/4
f 69/1/4 68/1/4 70/1/4
f 70/1/4 68/1/4 71/1/4
f 72/2/4 73/2/4 76/2/4
f 74/1/4 75/1/4 77/1/4
f 76/2/4 73/2/4 77/2/4
f 73/1/4 74/1/4 77/1/4
f 77/1/4 75/1/4 78/1/4
f 79/2/4 80/2/4 82/2/4
f 80/1/4 81/1/4 83/1/4
f 82/2/4 80/2/4 83/2/4
f 83/1/4 81/1/4 84/1/4
f 84/1/4 81/1/4 85/1/4
f 82/1/4 83/1/4 86/1/4
f 83/1/4 84/1/4 86/1/4
f 84/2/4 85/2/4 87/2/4
f 86/1/4 84/1/4 87/1/4
f 87/2/4 85/2/4 88/2/4
f 93/1/5 90/1/5 89/1/5
f 94/2/5 91/2/5 90/2/5
f 94/1/5 90/1/5 93/1/5
f 95/2/5 91/2/5 94/2/5
f 97/3/5 94/3/5 93/3/5
f 97/1/5 96/1/5 95/1/5
f 97/3/5 95/3/5 94/3/5
f 98/1/5 96/1/5 97/1/5
f 99/1/5 93/1/5 92/1/5
f 100/3/5 97/3/5 93/3/5
f 100/1/5 93/1/5 99/1/5
f 101/3/5 97/3/5 100/3/5
f 102/2/5 98/2/5 97/2/5
f 102/3/5 97/3/5 101/3/5
f 103/2/5 98/2/5 102/2/5
f 104/2/5 101/2/5 100/2/5
f 105/1/5 102/1/5 101/1/5
f 105/2/5 101/2/5 104/2/5
f 106/1/5 102/1/5 105/1/5
f 107/1/6 108/1/6 110/1/6
f 110/1/6 108/1/6 111/1/6
f 109/2/6 110/2/6 113/2/6
f 110/3/6 111/3/6 114/3/6
f 113/2/6 110/2/6 114/2/6
f 113/1/6 114/1/6 115/1/6
f 114/3/6 111/3/6 116/3/6
f 115/1/6 114/1/6 116/1/6
f 116/3/6 111/3/6 117/3/6
f 111/1/6 112/1/6 118/1/6
f 117/3/6 111/3/6 118/3/6
f 118/1/6 112/1/6 119/1/6
f 116/1/6 117/1/6 120/1/6
f 117/2/6 118/2/6 121/2/6
f 120/1/6 117/1/6 121/1/6
f 121/2/6 118/2/6 122/2/6
