# MagicaVoxel @ Ephtracy

# group
o 

# material
mtllib MiddleSegment_8x8trans.mtl
usemtl palette

# normals
vn -1 0 0
vn 1 0 0
vn 0 0 1
vn 0 0 -1
vn 0 -1 0
vn 0 1 0

# texcoords
vt 0.908203 0.5
vt 0.939453 0.5
vt 0.943359 0.5
vt 0.947266 0.5

# verts
v 0.4 2 -0.6
v 0.4 2 -0.7
v 0.4 2 -0.8
v 0.4 2 -0.9
v 0.4 2 -1
v 0.4 2.2 -0.9
v 0.4 2.2 -1
v 0.4 2.6 -0.7
v 0.4 2.6 -0.8
v 0.4 2.6 -0.9
v 0.4 2.7 -0.6
v 0.4 2.7 -0.7
v 0.4 2.7 -0.9
v 0.4 2.7 -1
v 0.4 3.1 -0.6
v 0.4 3.1 -0.7
v 0.4 3.1 -0.9
v 0.4 3.1 -1
v 0.4 3.3 -0.8
v 0.4 3.3 -0.9
v 0.4 3.5 -0.9
v 0.4 3.5 -1
v 0.4 3.6 -0.6
v 0.4 3.6 -0.7
v 0.4 3.6 -1
v 0.5 2 -0.5
v 0.5 2 -0.6
v 0.5 2 -1
v 0.5 2 -1.1
v 0.5 2.2 -0.9
v 0.5 2.2 -1
v 0.5 2.6 -0.8
v 0.5 2.6 -0.9
v 0.5 2.7 -0.6
v 0.5 2.7 -0.7
v 0.5 2.7 -0.9
v 0.5 2.7 -1
v 0.5 3.1 -0.6
v 0.5 3.1 -0.7
v 0.5 3.1 -0.9
v 0.5 3.1 -1
v 0.5 3.3 -0.8
v 0.5 3.3 -0.9
v 0.5 3.5 -1
v 0.5 3.6 -0.5
v 0.5 3.6 -0.6
v 0.5 3.6 -1
v 0.5 3.6 -1.1
v 0.6 2 -0.4
v 0.6 2 -0.5
v 0.6 2 -1.1
v 0.6 2 -1.2
v 0.6 2.3 -0.4
v 0.6 2.3 -0.5
v 0.6 2.8 -1.1
v 0.6 2.8 -1.2
v 0.6 2.9 -0.4
v 0.6 2.9 -0.5
v 0.6 3 -1.1
v 0.6 3 -1.2
v 0.6 3.2 -0.4
v 0.6 3.2 -0.5
v 0.6 3.5 -1.1
v 0.6 3.5 -1.2
v 0.6 3.6 -0.4
v 0.6 3.6 -0.5
v 0.6 3.6 -1.1
v 0.6 3.6 -1.2
v 0.7 2.3 -0.4
v 0.7 2.3 -0.5
v 0.7 2.6 -0.4
v 0.7 2.6 -0.5
v 0.7 3 -1.1
v 0.7 3 -1.2
v 0.7 3.5 -1.1
v 0.7 3.5 -1.2
v 0.8 2.2 -1.1
v 0.8 2.2 -1.2
v 0.8 2.6 -0.4
v 0.8 2.6 -0.5
v 0.8 2.6 -1.1
v 0.8 2.6 -1.2
v 0.8 3.3 -0.4
v 0.8 3.3 -0.5
v 0.9 2.6 -1.1
v 0.9 2.6 -1.2
v 0.9 3.3 -1.1
v 0.9 3.3 -1.2
v 0.7 2.2 -1.1
v 0.7 2.2 -1.2
v 0.7 2.7 -1.1
v 0.7 2.7 -1.2
v 0.7 2.9 -0.4
v 0.7 2.9 -0.5
v 0.7 3.2 -0.4
v 0.7 3.2 -0.5
v 0.7 3.3 -0.4
v 0.7 3.3 -0.5
v 0.8 2.7 -1.1
v 0.8 2.7 -1.2
v 0.8 3.3 -1.1
v 0.8 3.3 -1.2
v 1 2 -0.4
v 1 2 -0.5
v 1 2 -1.1
v 1 2 -1.2
v 1 3.3 -1.1
v 1 3.3 -1.2
v 1 3.5 -1.1
v 1 3.5 -1.2
v 1 3.6 -0.4
v 1 3.6 -0.5
v 1 3.6 -1.1
v 1 3.6 -1.2
v 1.1 2 -0.5
v 1.1 2 -0.6
v 1.1 2 -1
v 1.1 2 -1.1
v 1.1 2.4 -0.7
v 1.1 2.4 -0.8
v 1.1 2.6 -0.6
v 1.1 2.6 -0.7
v 1.1 2.8 -1
v 1.1 2.9 -0.9
v 1.1 2.9 -1
v 1.1 3 -0.6
v 1.1 3 -0.7
v 1.1 3.1 -0.7
v 1.1 3.1 -0.8
v 1.1 3.3 -0.9
v 1.1 3.3 -1
v 1.1 3.6 -0.5
v 1.1 3.6 -0.6
v 1.1 3.6 -1
v 1.1 3.6 -1.1
v 1.2 2 -0.6
v 1.2 2 -0.7
v 1.2 2 -0.9
v 1.2 2 -1
v 1.2 2.4 -0.7
v 1.2 2.4 -0.8
v 1.2 2.4 -0.9
v 1.2 2.6 -0.6
v 1.2 2.6 -0.7
v 1.2 2.8 -0.9
v 1.2 2.8 -1
v 1.2 2.9 -0.9
v 1.2 2.9 -1
v 1.2 3 -0.6
v 1.2 3 -0.7
v 1.2 3.1 -0.7
v 1.2 3.1 -0.8
v 1.2 3.3 -0.9
v 1.2 3.3 -1
v 1.2 3.4 -0.8
v 1.2 3.4 -0.9
v 1.2 3.6 -0.6
v 1.2 3.6 -0.7
v 1.2 3.6 -1
v 0.6 2 -0.4
v 0.6 2.3 -0.4
v 0.6 2.9 -0.4
v 0.6 3.2 -0.4
v 0.6 3.6 -0.4
v 0.7 2.3 -0.4
v 0.7 2.6 -0.4
v 0.7 2.9 -0.4
v 0.7 3.2 -0.4
v 0.7 3.3 -0.4
v 0.7 3.6 -0.4
v 0.8 2 -0.4
v 0.8 2.6 -0.4
v 0.8 3.3 -0.4
v 0.9 2 -0.4
v 0.9 3.3 -0.4
v 1 2 -0.4
v 1 3.6 -0.4
v 0.5 2 -0.5
v 0.5 3.6 -0.5
v 0.6 2 -0.5
v 0.6 2.3 -0.5
v 0.6 2.9 -0.5
v 0.6 3.2 -0.5
v 0.6 3.6 -0.5
v 0.7 2.3 -0.5
v 0.7 2.6 -0.5
v 0.7 2.9 -0.5
v 0.7 3.2 -0.5
v 0.7 3.3 -0.5
v 0.8 2.6 -0.5
v 0.8 3.3 -0.5
v 1 2 -0.5
v 1 3.6 -0.5
v 1.1 2 -0.5
v 1.1 3.6 -0.5
v 0.4 2 -0.6
v 0.4 2.7 -0.6
v 0.4 3.1 -0.6
v 0.4 3.6 -0.6
v 0.5 2 -0.6
v 0.5 2.7 -0.6
v 0.5 3.1 -0.6
v 0.5 3.6 -0.6
v 1.1 2 -0.6
v 1.1 2.6 -0.6
v 1.1 3 -0.6
v 1.1 3.6 -0.6
v 1.2 2 -0.6
v 1.2 2.6 -0.6
v 1.2 3 -0.6
v 1.2 3.6 -0.6
v 0.4 2.7 -0.7
v 0.4 3.1 -0.7
v 0.5 2.7 -0.7
v 0.5 3.1 -0.7
v 1.1 2.4 -0.8
v 1.1 3.1 -0.8
v 1.2 2.4 -0.8
v 1.2 3.1 -0.8
v 0.4 2.7 -0.9
v 0.4 3.1 -0.9
v 0.4 3.3 -0.9
v 0.5 2.7 -0.9
v 0.5 3.1 -0.9
v 0.5 3.3 -0.9
v 1.1 2.4 -0.7
v 1.1 2.6 -0.7
v 1.1 3 -0.7
v 1.1 3.1 -0.7
v 1.2 2.4 -0.7
v 1.2 2.6 -0.7
v 1.2 3 -0.7
v 1.2 3.1 -0.7
v 0.4 2.6 -0.8
v 0.4 3.3 -0.8
v 0.5 2.6 -0.8
v 0.5 3.3 -0.8
v 0.4 2.2 -0.9
v 0.4 2.6 -0.9
v 0.5 2.2 -0.9
v 0.5 2.6 -0.9
v 1.1 2.9 -0.9
v 1.1 3.3 -0.9
v 1.2 2.9 -0.9
v 1.2 3.3 -0.9
v 0.4 2 -1
v 0.4 2.2 -1
v 0.4 2.7 -1
v 0.4 3.1 -1
v 0.4 3.5 -1
v 0.4 3.6 -1
v 0.5 2 -1
v 0.5 2.2 -1
v 0.5 2.7 -1
v 0.5 3.1 -1
v 0.5 3.5 -1
v 0.5 3.6 -1
v 1.1 2 -1
v 1.1 2.8 -1
v 1.1 2.9 -1
v 1.1 3.3 -1
v 1.1 3.6 -1
v 1.2 2 -1
v 1.2 2.8 -1
v 1.2 2.9 -1
v 1.2 3.3 -1
v 1.2 3.6 -1
v 0.5 2 -1.1
v 0.5 3.6 -1.1
v 0.6 2 -1.1
v 0.6 2.8 -1.1
v 0.6 3 -1.1
v 0.6 3.5 -1.1
v 0.6 3.6 -1.1
v 0.7 2.2 -1.1
v 0.7 2.7 -1.1
v 0.7 3 -1.1
v 0.7 3.5 -1.1
v 0.8 2.2 -1.1
v 0.8 2.6 -1.1
v 0.8 2.7 -1.1
v 0.8 3.3 -1.1
v 0.9 2.6 -1.1
v 0.9 3.3 -1.1
v 1 2 -1.1
v 1 3.3 -1.1
v 1 3.5 -1.1
v 1 3.6 -1.1
v 1.1 2 -1.1
v 1.1 3.6 -1.1
v 0.6 2 -1.2
v 0.6 2.8 -1.2
v 0.6 3 -1.2
v 0.6 3.5 -1.2
v 0.6 3.6 -1.2
v 0.7 2 -1.2
v 0.7 2.2 -1.2
v 0.7 2.7 -1.2
v 0.7 2.8 -1.2
v 0.7 3 -1.2
v 0.7 3.5 -1.2
v 0.7 3.6 -1.2
v 0.8 2 -1.2
v 0.8 2.2 -1.2
v 0.8 2.6 -1.2
v 0.8 2.7 -1.2
v 0.8 3.3 -1.2
v 0.9 2.6 -1.2
v 0.9 3.3 -1.2
v 0.9 3.5 -1.2
v 1 2 -1.2
v 1 3.3 -1.2
v 1 3.5 -1.2
v 1 3.6 -1.2
v 0.6 2 -0.4
v 0.8 2 -0.4
v 0.9 2 -0.4
v 1 2 -0.4
v 0.5 2 -0.5
v 0.6 2 -0.5
v 0.8 2 -0.5
v 0.9 2 -0.5
v 1 2 -0.5
v 1.1 2 -0.5
v 0.4 2 -0.6
v 0.5 2 -0.6
v 0.6 2 -0.6
v 1 2 -0.6
v 1.1 2 -0.6
v 1.2 2 -0.6
v 0.4 2 -0.7
v 0.5 2 -0.7
v 0.7 2 -0.7
v 0.9 2 -0.7
v 1.1 2 -0.7
v 1.2 2 -0.7
v 0.4 2 -0.8
v 0.5 2 -0.8
v 0.4 2 -0.9
v 0.5 2 -0.9
v 0.7 2 -0.9
v 0.9 2 -0.9
v 1.1 2 -0.9
v 1.2 2 -0.9
v 0.4 2 -1
v 0.5 2 -1
v 0.6 2 -1
v 1 2 -1
v 1.1 2 -1
v 1.2 2 -1
v 0.5 2 -1.1
v 0.6 2 -1.1
v 0.7 2 -1.1
v 0.8 2 -1.1
v 1 2 -1.1
v 1.1 2 -1.1
v 0.6 2 -1.2
v 0.7 2 -1.2
v 0.8 2 -1.2
v 1 2 -1.2
v 0.4 2.7 -0.9
v 0.5 2.7 -0.9
v 0.4 2.7 -1
v 0.5 2.7 -1
v 0.7 2.7 -1.1
v 0.8 2.7 -1.1
v 0.7 2.7 -1.2
v 0.8 2.7 -1.2
v 0.6 2.9 -0.4
v 0.7 2.9 -0.4
v 0.6 2.9 -0.5
v 0.7 2.9 -0.5
v 0.4 3.1 -0.6
v 0.5 3.1 -0.6
v 0.4 3.1 -0.7
v 0.5 3.1 -0.7
v 1.1 3.1 -0.7
v 1.2 3.1 -0.7
v 1.1 3.1 -0.8
v 1.2 3.1 -0.8
v 0.7 3.3 -0.4
v 0.8 3.3 -0.4
v 0.7 3.3 -0.5
v 0.8 3.3 -0.5
v 0.4 3.3 -0.8
v 0.5 3.3 -0.8
v 0.4 3.3 -0.9
v 0.5 3.3 -0.9
v 1.1 3.3 -0.9
v 1.2 3.3 -0.9
v 1.1 3.3 -1
v 1.2 3.3 -1
v 0.8 3.3 -1.1
v 0.9 3.3 -1.1
v 0.8 3.3 -1.2
v 0.9 3.3 -1.2
v 0.6 3.5 -1.1
v 0.7 3.5 -1.1
v 0.6 3.5 -1.2
v 0.7 3.5 -1.2
v 0.4 2.2 -0.9
v 0.5 2.2 -0.9
v 0.4 2.2 -1
v 0.5 2.2 -1
v 0.7 2.2 -1.1
v 0.8 2.2 -1.1
v 0.7 2.2 -1.2
v 0.8 2.2 -1.2
v 0.6 2.3 -0.4
v 0.7 2.3 -0.4
v 0.6 2.3 -0.5
v 0.7 2.3 -0.5
v 1.1 2.4 -0.7
v 1.2 2.4 -0.7
v 1.1 2.4 -0.8
v 1.2 2.4 -0.8
v 0.7 2.6 -0.4
v 0.8 2.6 -0.4
v 0.7 2.6 -0.5
v 0.8 2.6 -0.5
v 0.4 2.6 -0.8
v 0.5 2.6 -0.8
v 0.4 2.6 -0.9
v 0.5 2.6 -0.9
v 0.8 2.6 -1.1
v 0.9 2.6 -1.1
v 0.8 2.6 -1.2
v 0.9 2.6 -1.2
v 0.4 2.7 -0.6
v 0.5 2.7 -0.6
v 0.4 2.7 -0.7
v 0.5 2.7 -0.7
v 1.1 2.9 -0.9
v 1.2 2.9 -0.9
v 1.1 2.9 -1
v 1.2 2.9 -1
v 0.6 3 -1.1
v 0.7 3 -1.1
v 0.6 3 -1.2
v 0.7 3 -1.2
v 0.6 3.6 -0.4
v 0.7 3.6 -0.4
v 1 3.6 -0.4
v 0.5 3.6 -0.5
v 0.6 3.6 -0.5
v 0.7 3.6 -0.5
v 1 3.6 -0.5
v 1.1 3.6 -0.5
v 0.4 3.6 -0.6
v 0.5 3.6 -0.6
v 0.6 3.6 -0.6
v 1 3.6 -0.6
v 1.1 3.6 -0.6
v 1.2 3.6 -0.6
v 0.4 3.6 -0.7
v 0.5 3.6 -0.7
v 0.7 3.6 -0.7
v 0.9 3.6 -0.7
v 1.1 3.6 -0.7
v 1.2 3.6 -0.7
v 0.7 3.6 -0.9
v 0.9 3.6 -0.9
v 0.4 3.6 -1
v 0.5 3.6 -1
v 0.6 3.6 -1
v 1 3.6 -1
v 1.1 3.6 -1
v 1.2 3.6 -1
v 0.5 3.6 -1.1
v 0.6 3.6 -1.1
v 0.7 3.6 -1.1
v 1 3.6 -1.1
v 1.1 3.6 -1.1
v 0.6 3.6 -1.2
v 0.7 3.6 -1.2
v 1 3.6 -1.2

# faces
f 6/1/1 4/1/1 3/1/1
f 6/2/1 5/2/1 4/2/1
f 7/2/1 5/2/1 6/2/1
f 8/1/1 2/1/1 1/1/1
f 8/2/1 3/2/1 2/2/1
f 9/1/1 6/1/1 3/1/1
f 9/2/1 3/2/1 8/2/1
f 10/1/1 6/1/1 9/1/1
f 11/1/1 8/1/1 1/1/1
f 11/1/1 9/1/1 8/1/1
f 12/1/1 9/1/1 11/1/1
f 16/1/1 9/1/1 12/1/1
f 17/1/1 14/1/1 13/1/1
f 18/1/1 14/1/1 17/1/1
f 19/1/1 9/1/1 16/1/1
f 20/2/1 18/2/1 17/2/1
f 21/2/1 18/2/1 20/2/1
f 21/1/1 20/1/1 19/1/1
f 22/2/1 18/2/1 21/2/1
f 23/2/1 16/2/1 15/2/1
f 24/1/1 19/1/1 16/1/1
f 24/2/1 16/2/1 23/2/1
f 24/1/1 21/1/1 19/1/1
f 24/1/1 22/1/1 21/1/1
f 25/1/1 22/1/1 24/1/1
f 31/1/1 29/1/1 28/1/1
f 33/1/1 31/1/1 30/1/1
f 34/1/1 27/1/1 26/1/1
f 36/1/1 33/1/1 32/1/1
f 36/1/1 31/1/1 33/1/1
f 37/1/1 29/1/1 31/1/1
f 37/1/1 31/1/1 36/1/1
f 38/1/1 35/1/1 34/1/1
f 38/1/1 34/1/1 26/1/1
f 39/1/1 35/1/1 38/1/1
f 40/1/1 36/1/1 32/1/1
f 41/1/1 29/1/1 37/1/1
f 42/1/1 40/1/1 32/1/1
f 43/1/1 40/1/1 42/1/1
f 44/1/1 29/1/1 41/1/1
f 45/1/1 38/1/1 26/1/1
f 46/1/1 38/1/1 45/1/1
f 47/1/1 29/1/1 44/1/1
f 48/1/1 29/1/1 47/1/1
f 53/1/1 50/1/1 49/1/1
f 54/1/1 50/1/1 53/1/1
f 55/1/1 52/1/1 51/1/1
f 56/1/1 52/1/1 55/1/1
f 59/2/1 56/2/1 55/2/1
f 60/2/1 56/2/1 59/2/1
f 61/1/1 58/1/1 57/1/1
f 62/1/1 58/1/1 61/1/1
f 65/2/1 62/2/1 61/2/1
f 66/2/1 62/2/1 65/2/1
f 67/2/1 64/2/1 63/2/1
f 68/2/1 64/2/1 67/2/1
f 71/1/1 70/1/1 69/1/1
f 72/1/1 70/1/1 71/1/1
f 75/1/1 74/1/1 73/1/1
f 76/1/1 74/1/1 75/1/1
f 81/1/1 78/1/1 77/1/1
f 82/1/1 78/1/1 81/1/1
f 83/2/1 80/2/1 79/2/1
f 84/2/1 80/2/1 83/2/1
f 87/1/1 86/1/1 85/1/1
f 88/1/1 86/1/1 87/1/1
f 89/1/2 90/1/2 91/1/2
f 91/1/2 90/1/2 92/1/2
f 93/1/2 94/1/2 95/1/2
f 95/1/2 94/1/2 96/1/2
f 95/2/2 96/2/2 97/2/2
f 97/2/2 96/2/2 98/2/2
f 99/1/2 100/1/2 101/1/2
f 101/1/2 100/1/2 102/1/2
f 105/1/2 106/1/2 107/1/2
f 107/1/2 106/1/2 108/1/2
f 107/2/2 108/2/2 109/2/2
f 109/2/2 108/2/2 110/2/2
f 103/1/2 104/1/2 111/1/2
f 111/1/2 104/1/2 112/1/2
f 109/1/2 110/1/2 113/1/2
f 113/1/2 110/1/2 114/1/2
f 115/1/2 116/1/2 121/1/2
f 119/1/2 120/1/2 122/1/2
f 117/1/2 118/1/2 123/1/2
f 123/1/2 118/1/2 125/1/2
f 115/1/2 121/1/2 126/1/2
f 122/1/2 120/1/2 127/1/2
f 127/1/2 120/1/2 128/1/2
f 128/1/2 120/1/2 129/1/2
f 124/1/2 125/1/2 130/1/2
f 125/1/2 118/1/2 131/1/2
f 130/1/2 125/1/2 131/1/2
f 115/1/2 126/1/2 132/1/2
f 132/1/2 126/1/2 133/1/2
f 131/1/2 118/1/2 134/1/2
f 134/1/2 118/1/2 135/1/2
f 136/2/2 137/2/2 140/2/2
f 137/1/2 138/1/2 140/1/2
f 140/1/2 138/1/2 141/1/2
f 138/2/2 139/2/2 142/2/2
f 141/1/2 138/1/2 142/1/2
f 136/2/2 140/2/2 143/2/2
f 143/2/2 140/2/2 144/2/2
f 142/2/2 139/2/2 145/2/2
f 141/2/2 142/2/2 145/2/2
f 145/2/2 139/2/2 146/2/2
f 141/2/2 145/2/2 147/2/2
f 145/1/2 146/1/2 147/1/2
f 147/1/2 146/1/2 148/1/2
f 143/1/2 144/1/2 149/1/2
f 149/1/2 144/1/2 150/1/2
f 149/2/2 150/2/2 151/2/2
f 141/2/2 147/2/2 152/2/2
f 152/2/2 147/2/2 153/2/2
f 151/1/2 152/1/2 155/1/2
f 152/2/2 153/2/2 155/2/2
f 153/1/2 154/1/2 156/1/2
f 155/2/2 153/2/2 156/2/2
f 149/2/2 151/2/2 157/2/2
f 151/1/2 155/1/2 158/1/2
f 157/2/2 151/2/2 158/2/2
f 155/1/2 156/1/2 158/1/2
f 156/1/2 154/1/2 159/1/2
f 158/1/2 156/1/2 159/1/2
f 165/1/3 161/1/3 160/1/3
f 167/1/3 163/1/3 162/1/3
f 168/2/3 164/2/3 163/2/3
f 168/1/3 163/1/3 167/1/3
f 169/2/3 164/2/3 168/2/3
f 170/2/3 164/2/3 169/2/3
f 171/1/3 166/1/3 165/1/3
f 171/1/3 165/1/3 160/1/3
f 172/1/3 166/1/3 171/1/3
f 173/1/3 170/1/3 169/1/3
f 174/2/3 172/2/3 171/2/3
f 174/2/3 173/2/3 172/2/3
f 175/1/3 170/1/3 173/1/3
f 175/2/3 173/2/3 174/2/3
f 176/1/3 175/1/3 174/1/3
f 177/1/3 170/1/3 175/1/3
f 177/1/3 175/1/3 176/1/3
f 180/1/3 179/1/3 178/1/3
f 181/1/3 179/1/3 180/1/3
f 182/1/3 179/1/3 181/1/3
f 183/1/3 179/1/3 182/1/3
f 184/1/3 179/1/3 183/1/3
f 185/1/3 182/1/3 181/1/3
f 186/1/3 182/1/3 185/1/3
f 187/1/3 182/1/3 186/1/3
f 190/1/3 189/1/3 188/1/3
f 190/1/3 188/1/3 187/1/3
f 190/1/3 187/1/3 186/1/3
f 191/1/3 189/1/3 190/1/3
f 194/1/3 193/1/3 192/1/3
f 195/1/3 193/1/3 194/1/3
f 200/1/3 197/1/3 196/1/3
f 201/1/3 197/1/3 200/1/3
f 202/2/3 199/2/3 198/2/3
f 203/2/3 199/2/3 202/2/3
f 208/2/3 205/2/3 204/2/3
f 209/1/3 206/1/3 205/1/3
f 209/2/3 205/2/3 208/2/3
f 210/2/3 207/2/3 206/2/3
f 210/1/3 206/1/3 209/1/3
f 211/2/3 207/2/3 210/2/3
f 214/1/3 213/1/3 212/1/3
f 215/1/3 213/1/3 214/1/3
f 218/2/3 217/2/3 216/2/3
f 219/2/3 217/2/3 218/2/3
f 223/1/3 221/1/3 220/1/3
f 224/2/3 222/2/3 221/2/3
f 224/1/3 221/1/3 223/1/3
f 225/2/3 222/2/3 224/2/3
f 226/2/4 227/2/4 230/2/4
f 227/1/4 228/1/4 231/1/4
f 230/2/4 227/2/4 231/2/4
f 228/2/4 229/2/4 232/2/4
f 231/1/4 228/1/4 232/1/4
f 232/2/4 229/2/4 233/2/4
f 234/1/4 235/1/4 236/1/4
f 236/1/4 235/1/4 237/1/4
f 238/1/4 239/1/4 240/1/4
f 240/1/4 239/1/4 241/1/4
f 242/2/4 243/2/4 244/2/4
f 244/2/4 243/2/4 245/2/4
f 246/2/4 247/2/4 252/2/4
f 252/2/4 247/2/4 253/2/4
f 248/1/4 249/1/4 254/1/4
f 249/2/4 250/2/4 255/2/4
f 254/1/4 249/1/4 255/1/4
f 250/1/4 251/1/4 256/1/4
f 255/2/4 250/2/4 256/2/4
f 256/1/4 251/1/4 257/1/4
f 258/2/4 259/2/4 263/2/4
f 259/1/4 260/1/4 264/1/4
f 263/2/4 259/2/4 264/2/4
f 264/1/4 260/1/4 265/1/4
f 261/1/4 262/1/4 266/1/4
f 266/1/4 262/1/4 267/1/4
f 268/1/4 269/1/4 270/1/4
f 270/1/4 269/1/4 271/1/4
f 271/1/4 269/1/4 272/1/4
f 272/1/4 269/1/4 273/1/4
f 273/1/4 269/1/4 274/1/4
f 272/1/4 273/1/4 277/1/4
f 277/1/4 273/1/4 278/1/4
f 275/1/4 276/1/4 279/1/4
f 279/1/4 276/1/4 280/1/4
f 280/1/4 276/1/4 281/1/4
f 281/1/4 282/1/4 283/1/4
f 280/1/4 281/1/4 283/1/4
f 283/1/4 282/1/4 284/1/4
f 286/1/4 287/1/4 289/1/4
f 287/1/4 288/1/4 289/1/4
f 285/1/4 286/1/4 289/1/4
f 289/1/4 288/1/4 290/1/4
f 291/1/4 292/1/4 296/1/4
f 296/1/4 292/1/4 297/1/4
f 297/1/4 292/1/4 298/1/4
f 292/2/4 293/2/4 299/2/4
f 298/1/4 292/1/4 299/1/4
f 299/2/4 293/2/4 300/2/4
f 294/2/4 295/2/4 301/2/4
f 301/2/4 295/2/4 302/2/4
f 296/2/4 297/2/4 303/2/4
f 303/2/4 297/2/4 304/2/4
f 299/1/4 300/1/4 306/1/4
f 301/1/4 302/1/4 306/1/4
f 298/1/4 299/1/4 306/1/4
f 300/1/4 301/1/4 306/1/4
f 306/1/4 302/1/4 307/1/4
f 304/1/4 305/1/4 308/1/4
f 303/1/4 304/1/4 308/1/4
f 307/1/4 302/1/4 309/1/4
f 309/1/4 302/1/4 310/1/4
f 303/1/4 308/1/4 311/1/4
f 308/1/4 309/1/4 311/1/4
f 309/2/4 310/2/4 312/2/4
f 311/1/4 309/1/4 312/1/4
f 310/1/4 302/1/4 313/1/4
f 312/2/4 310/2/4 313/2/4
f 313/1/4 302/1/4 314/1/4
f 320/1/5 316/1/5 315/1/5
f 321/2/5 317/2/5 316/2/5
f 321/1/5 316/1/5 320/1/5
f 322/1/5 318/1/5 317/1/5
f 322/2/5 317/2/5 321/2/5
f 323/1/5 318/1/5 322/1/5
f 326/1/5 320/1/5 319/1/5
f 327/3/5 321/3/5 320/3/5
f 327/3/5 322/3/5 321/3/5
f 327/1/5 320/1/5 326/1/5
f 327/3/5 323/3/5 322/3/5
f 328/1/5 324/1/5 323/1/5
f 328/3/5 323/3/5 327/3/5
f 329/1/5 324/1/5 328/1/5
f 331/1/5 326/1/5 325/1/5
f 332/3/5 327/3/5 326/3/5
f 332/1/5 326/1/5 331/1/5
f 333/4/5 328/4/5 327/4/5
f 334/4/5 328/4/5 333/4/5
f 335/2/5 330/2/5 329/2/5
f 335/3/5 329/3/5 328/3/5
f 336/2/5 330/2/5 335/2/5
f 337/2/5 332/2/5 331/2/5
f 338/3/5 327/3/5 332/3/5
f 338/2/5 332/2/5 337/2/5
f 339/1/5 338/1/5 337/1/5
f 340/3/5 327/3/5 338/3/5
f 340/1/5 338/1/5 339/1/5
f 341/3/5 334/3/5 333/3/5
f 341/4/5 333/4/5 327/4/5
f 342/4/5 328/4/5 334/4/5
f 342/3/5 334/3/5 341/3/5
f 343/3/5 335/3/5 328/3/5
f 343/1/5 336/1/5 335/1/5
f 344/1/5 336/1/5 343/1/5
f 345/2/5 340/2/5 339/2/5
f 346/3/5 327/3/5 340/3/5
f 346/2/5 340/2/5 345/2/5
f 347/4/5 341/4/5 327/4/5
f 347/3/5 327/3/5 346/3/5
f 347/4/5 342/4/5 341/4/5
f 348/4/5 328/4/5 342/4/5
f 348/4/5 342/4/5 347/4/5
f 348/3/5 343/3/5 328/3/5
f 349/2/5 344/2/5 343/2/5
f 349/3/5 343/3/5 348/3/5
f 350/2/5 344/2/5 349/2/5
f 351/1/5 347/1/5 346/1/5
f 352/3/5 348/3/5 347/3/5
f 352/1/5 347/1/5 351/1/5
f 353/3/5 348/3/5 352/3/5
f 354/3/5 348/3/5 353/3/5
f 355/1/5 349/1/5 348/1/5
f 355/3/5 348/3/5 354/3/5
f 356/1/5 349/1/5 355/1/5
f 357/1/5 353/1/5 352/1/5
f 358/2/5 354/2/5 353/2/5
f 358/1/5 353/1/5 357/1/5
f 359/1/5 355/1/5 354/1/5
f 359/2/5 354/2/5 358/2/5
f 360/1/5 355/1/5 359/1/5
f 363/1/5 362/1/5 361/1/5
f 364/1/5 362/1/5 363/1/5
f 367/1/5 366/1/5 365/1/5
f 368/1/5 366/1/5 367/1/5
f 371/1/5 370/1/5 369/1/5
f 372/1/5 370/1/5 371/1/5
f 375/2/5 374/2/5 373/2/5
f 376/2/5 374/2/5 375/2/5
f 379/1/5 378/1/5 377/1/5
f 380/1/5 378/1/5 379/1/5
f 383/1/5 382/1/5 381/1/5
f 384/1/5 382/1/5 383/1/5
f 387/1/5 386/1/5 385/1/5
f 388/1/5 386/1/5 387/1/5
f 391/1/5 390/1/5 389/1/5
f 392/1/5 390/1/5 391/1/5
f 395/1/5 394/1/5 393/1/5
f 396/1/5 394/1/5 395/1/5
f 399/2/5 398/2/5 397/2/5
f 400/2/5 398/2/5 399/2/5
f 401/2/6 402/2/6 403/2/6
f 403/2/6 402/2/6 404/2/6
f 405/2/6 406/2/6 407/2/6
f 407/2/6 406/2/6 408/2/6
f 409/1/6 410/1/6 411/1/6
f 411/1/6 410/1/6 412/1/6
f 413/1/6 414/1/6 415/1/6
f 415/1/6 414/1/6 416/1/6
f 417/1/6 418/1/6 419/1/6
f 419/1/6 418/1/6 420/1/6
f 421/1/6 422/1/6 423/1/6
f 423/1/6 422/1/6 424/1/6
f 425/1/6 426/1/6 427/1/6
f 427/1/6 426/1/6 428/1/6
f 429/1/6 430/1/6 431/1/6
f 431/1/6 430/1/6 432/1/6
f 433/1/6 434/1/6 435/1/6
f 435/1/6 434/1/6 436/1/6
f 437/2/6 438/2/6 439/2/6
f 439/2/6 438/2/6 440/2/6
f 441/2/6 442/2/6 445/2/6
f 442/1/6 443/1/6 446/1/6
f 445/2/6 442/2/6 446/2/6
f 446/1/6 443/1/6 447/1/6
f 444/1/6 445/1/6 450/1/6
f 445/3/6 446/3/6 451/3/6
f 446/3/6 447/3/6 451/3/6
f 450/1/6 445/1/6 451/1/6
f 447/1/6 448/1/6 452/1/6
f 451/3/6 447/3/6 452/3/6
f 452/1/6 448/1/6 453/1/6
f 449/2/6 450/2/6 455/2/6
f 450/3/6 451/3/6 456/3/6
f 455/2/6 450/2/6 456/2/6
f 451/4/6 452/4/6 457/4/6
f 457/4/6 452/4/6 458/4/6
f 453/2/6 454/2/6 459/2/6
f 452/3/6 453/3/6 459/3/6
f 459/2/6 454/2/6 460/2/6
f 457/3/6 458/3/6 461/3/6
f 451/4/6 457/4/6 461/4/6
f 458/4/6 452/4/6 462/4/6
f 461/3/6 458/3/6 462/3/6
f 455/1/6 456/1/6 463/1/6
f 456/3/6 451/3/6 464/3/6
f 463/1/6 456/1/6 464/1/6
f 451/4/6 461/4/6 465/4/6
f 464/3/6 451/3/6 465/3/6
f 461/4/6 462/4/6 465/4/6
f 462/4/6 452/4/6 466/4/6
f 465/4/6 462/4/6 466/4/6
f 452/3/6 459/3/6 466/3/6
f 459/1/6 460/1/6 467/1/6
f 466/3/6 459/3/6 467/3/6
f 467/1/6 460/1/6 468/1/6
f 464/1/6 465/1/6 469/1/6
f 465/3/6 466/3/6 470/3/6
f 469/1/6 465/1/6 470/1/6
f 470/3/6 466/3/6 471/3/6
f 466/1/6 467/1/6 472/1/6
f 471/3/6 466/3/6 472/3/6
f 472/1/6 467/1/6 473/1/6
f 470/2/6 471/2/6 474/2/6
f 471/1/6 472/1/6 475/1/6
f 474/2/6 471/2/6 475/2/6
f 475/1/6 472/1/6 476/1/6
