# MagicaVoxel @ Ephtracy

# group
o 

# material
mtllib MiddleSegment_6x6trans.mtl
usemtl palette

# normals
vn -1 0 0
vn 1 0 0
vn 0 0 1
vn 0 0 -1
vn 0 -1 0
vn 0 1 0

# texcoords
vt 0.908203 0.5
vt 0.939453 0.5
vt 0.943359 0.5
vt 0.947266 0.5

# verts
v 0.5 2 -0.7
v 0.5 2 -0.9
v 0.5 2.6 -0.8
v 0.5 2.6 -0.9
v 0.5 2.9 -0.7
v 0.5 2.9 -0.8
v 0.5 3 -0.8
v 0.5 3 -0.9
v 0.5 3.4 -0.7
v 0.5 3.4 -0.8
v 0.5 3.6 -0.7
v 0.5 3.6 -0.9
v 0.6 2 -0.6
v 0.6 2 -0.7
v 0.6 2 -0.9
v 0.6 2 -1
v 0.6 2.4 -0.9
v 0.6 2.4 -1
v 0.6 2.6 -0.6
v 0.6 2.6 -0.7
v 0.6 2.6 -0.9
v 0.6 2.9 -0.7
v 0.6 3 -0.9
v 0.6 3.4 -0.7
v 0.6 3.6 -0.6
v 0.6 3.6 -0.7
v 0.6 3.6 -0.9
v 0.6 3.6 -1
v 0.7 2 -0.5
v 0.7 2 -0.6
v 0.7 2 -1
v 0.7 2 -1.1
v 0.7 2.4 -1
v 0.7 2.4 -1.1
v 0.7 2.6 -0.6
v 0.7 2.9 -1
v 0.7 2.9 -1.1
v 0.7 3.3 -1
v 0.7 3.3 -1.1
v 0.7 3.6 -0.5
v 0.7 3.6 -0.6
v 0.7 3.6 -1
v 0.7 3.6 -1.1
v 0.9 2 -0.5
v 0.9 2 -0.6
v 0.9 2 -1
v 0.9 2 -1.1
v 0.9 2.1 -0.5
v 0.9 2.1 -0.6
v 0.9 2.6 -0.5
v 0.9 2.6 -0.6
v 0.9 2.8 -1
v 0.9 2.9 -0.5
v 0.9 2.9 -0.6
v 0.9 3.1 -1
v 0.9 3.1 -1.1
v 0.9 3.5 -0.5
v 0.9 3.5 -0.6
v 0.9 3.6 -0.5
v 0.9 3.6 -0.6
v 0.9 3.6 -1
v 0.9 3.6 -1.1
v 1 2 -0.6
v 1 2 -0.7
v 1 2 -0.9
v 1 2 -1
v 1 2.6 -0.7
v 1 2.8 -0.9
v 1 2.8 -1
v 1 3.3 -0.9
v 1 3.6 -0.6
v 1 3.6 -0.7
v 1 3.6 -0.9
v 1 3.6 -1
v 1.1 2 -0.7
v 1.1 2 -0.8
v 1.1 2 -0.9
v 1.1 2.6 -0.7
v 1.1 2.6 -0.8
v 1.1 3.3 -0.8
v 1.1 3.3 -0.9
v 1.1 3.6 -0.7
v 1.1 3.6 -0.8
v 1.1 3.6 -0.9
v 0.7 2 -0.5
v 0.7 3.6 -0.5
v 0.8 2.1 -0.5
v 0.8 2.6 -0.5
v 0.8 2.9 -0.5
v 0.8 3.5 -0.5
v 0.9 2 -0.5
v 0.9 2.1 -0.5
v 0.9 2.6 -0.5
v 0.9 2.9 -0.5
v 0.9 3.5 -0.5
v 0.9 3.6 -0.5
v 0.6 2 -0.6
v 0.6 2.6 -0.6
v 0.6 3.6 -0.6
v 0.7 2 -0.6
v 0.7 2.6 -0.6
v 0.7 3.6 -0.6
v 0.9 2 -0.6
v 0.9 2.1 -0.6
v 0.9 2.6 -0.6
v 0.9 2.9 -0.6
v 0.9 3.5 -0.6
v 0.9 3.6 -0.6
v 1 2 -0.6
v 1 3.6 -0.6
v 0.5 2 -0.7
v 0.5 2.9 -0.7
v 0.5 3.4 -0.7
v 0.5 3.6 -0.7
v 0.6 2 -0.7
v 0.6 2.6 -0.7
v 0.6 2.9 -0.7
v 0.6 3.4 -0.7
v 0.6 3.6 -0.7
v 1 2 -0.7
v 1 2.6 -0.7
v 1 3.6 -0.7
v 1.1 2 -0.7
v 1.1 2.6 -0.7
v 1.1 3.6 -0.7
v 0.5 2 -0.9
v 0.5 2.6 -0.9
v 0.5 3 -0.9
v 0.5 3.6 -0.9
v 0.6 2 -0.9
v 0.6 2.4 -0.9
v 0.6 2.6 -0.9
v 0.6 3 -0.9
v 0.6 3.6 -0.9
v 1 2 -0.9
v 1 2.8 -0.9
v 1 3.3 -0.9
v 1 3.6 -0.9
v 1.1 2 -0.9
v 1.1 3.3 -0.9
v 1.1 3.6 -0.9
v 0.6 2 -1
v 0.6 2.4 -1
v 0.6 3.6 -1
v 0.7 2 -1
v 0.7 2.4 -1
v 0.7 2.9 -1
v 0.7 3.3 -1
v 0.7 3.6 -1
v 0.9 2 -1
v 0.9 2.8 -1
v 0.9 3.1 -1
v 0.9 3.6 -1
v 1 2 -1
v 1 2.8 -1
v 1 3.6 -1
v 0.7 2 -1.1
v 0.7 2.4 -1.1
v 0.7 2.9 -1.1
v 0.7 3.3 -1.1
v 0.7 3.6 -1.1
v 0.8 2 -1.1
v 0.8 2.4 -1.1
v 0.8 2.9 -1.1
v 0.8 3.1 -1.1
v 0.8 3.3 -1.1
v 0.8 3.6 -1.1
v 0.9 2 -1.1
v 0.9 3.1 -1.1
v 0.9 3.6 -1.1
v 0.7 2 -0.5
v 0.9 2 -0.5
v 0.6 2 -0.6
v 0.7 2 -0.6
v 0.9 2 -0.6
v 1 2 -0.6
v 0.5 2 -0.7
v 0.6 2 -0.7
v 0.7 2 -0.7
v 0.9 2 -0.7
v 1 2 -0.7
v 1.1 2 -0.7
v 1 2 -0.8
v 1.1 2 -0.8
v 0.5 2 -0.9
v 0.6 2 -0.9
v 0.7 2 -0.9
v 0.8 2 -0.9
v 0.9 2 -0.9
v 1 2 -0.9
v 1.1 2 -0.9
v 0.6 2 -1
v 0.7 2 -1
v 0.8 2 -1
v 0.9 2 -1
v 1 2 -1
v 0.7 2 -1.1
v 0.8 2 -1.1
v 0.9 2 -1.1
v 0.7 3.6 -0.5
v 0.9 3.6 -0.5
v 0.6 3.6 -0.6
v 0.7 3.6 -0.6
v 0.9 3.6 -0.6
v 1 3.6 -0.6
v 0.5 3.6 -0.7
v 0.6 3.6 -0.7
v 0.7 3.6 -0.7
v 0.9 3.6 -0.7
v 1 3.6 -0.7
v 1.1 3.6 -0.7
v 1 3.6 -0.8
v 1.1 3.6 -0.8
v 0.5 3.6 -0.9
v 0.6 3.6 -0.9
v 0.7 3.6 -0.9
v 0.9 3.6 -0.9
v 1 3.6 -0.9
v 1.1 3.6 -0.9
v 0.6 3.6 -1
v 0.7 3.6 -1
v 0.8 3.6 -1
v 0.9 3.6 -1
v 1 3.6 -1
v 0.7 3.6 -1.1
v 0.8 3.6 -1.1
v 0.9 3.6 -1.1

# faces
f 3/1/1 2/1/1 1/1/1
f 4/1/1 2/1/1 3/1/1
f 5/1/1 3/1/1 1/1/1
f 6/2/1 4/2/1 3/2/1
f 6/1/1 3/1/1 5/1/1
f 7/2/1 6/2/1 5/2/1
f 7/2/1 4/2/1 6/2/1
f 8/2/1 4/2/1 7/2/1
f 9/2/1 7/2/1 5/2/1
f 10/1/1 8/1/1 7/1/1
f 10/2/1 7/2/1 9/2/1
f 11/1/1 10/1/1 9/1/1
f 12/1/1 8/1/1 10/1/1
f 12/1/1 10/1/1 11/1/1
f 17/2/1 16/2/1 15/2/1
f 18/2/1 16/2/1 17/2/1
f 19/2/1 14/2/1 13/2/1
f 20/2/1 14/2/1 19/2/1
f 21/1/1 18/1/1 17/1/1
f 22/1/1 20/1/1 19/1/1
f 23/1/1 18/1/1 21/1/1
f 24/1/1 22/1/1 19/1/1
f 25/1/1 24/1/1 19/1/1
f 26/1/1 24/1/1 25/1/1
f 27/1/1 18/1/1 23/1/1
f 28/1/1 18/1/1 27/1/1
f 33/2/1 32/2/1 31/2/1
f 34/2/1 32/2/1 33/2/1
f 35/1/1 30/1/1 29/1/1
f 36/1/1 34/1/1 33/1/1
f 37/1/1 34/1/1 36/1/1
f 38/2/1 37/2/1 36/2/1
f 39/2/1 37/2/1 38/2/1
f 40/1/1 35/1/1 29/1/1
f 41/1/1 35/1/1 40/1/1
f 42/1/1 39/1/1 38/1/1
f 43/1/1 39/1/1 42/1/1
f 44/1/2 45/1/2 48/1/2
f 48/1/2 45/1/2 49/1/2
f 48/2/2 49/2/2 50/2/2
f 50/2/2 49/2/2 51/2/2
f 46/1/2 47/1/2 52/1/2
f 50/1/2 51/1/2 53/1/2
f 53/1/2 51/1/2 54/1/2
f 52/1/2 47/1/2 55/1/2
f 55/1/2 47/1/2 56/1/2
f 53/2/2 54/2/2 57/2/2
f 57/2/2 54/2/2 58/2/2
f 57/1/2 58/1/2 59/1/2
f 59/1/2 58/1/2 60/1/2
f 55/2/2 56/2/2 61/2/2
f 61/2/2 56/2/2 62/2/2
f 63/1/2 64/1/2 67/1/2
f 65/2/2 66/2/2 68/2/2
f 68/2/2 66/2/2 69/2/2
f 68/1/2 69/1/2 70/1/2
f 63/1/2 67/1/2 71/1/2
f 71/1/2 67/1/2 72/1/2
f 70/1/2 69/1/2 73/1/2
f 73/1/2 69/1/2 74/1/2
f 75/2/2 76/2/2 78/2/2
f 76/1/2 77/1/2 79/1/2
f 78/2/2 76/2/2 79/2/2
f 78/1/2 79/1/2 80/1/2
f 79/1/2 77/1/2 80/1/2
f 80/1/2 77/1/2 81/1/2
f 78/1/2 80/1/2 82/1/2
f 80/2/2 81/2/2 83/2/2
f 82/1/2 80/1/2 83/1/2
f 83/2/2 81/2/2 84/2/2
f 87/1/3 86/1/3 85/1/3
f 88/1/3 86/1/3 87/1/3
f 89/1/3 86/1/3 88/1/3
f 90/1/3 86/1/3 89/1/3
f 91/1/3 87/1/3 85/1/3
f 92/2/3 88/2/3 87/2/3
f 92/1/3 87/1/3 91/1/3
f 93/1/3 89/1/3 88/1/3
f 93/2/3 88/2/3 92/2/3
f 94/2/3 90/2/3 89/2/3
f 94/1/3 89/1/3 93/1/3
f 95/1/3 86/1/3 90/1/3
f 95/2/3 90/2/3 94/2/3
f 96/1/3 86/1/3 95/1/3
f 100/2/3 98/2/3 97/2/3
f 101/1/3 99/1/3 98/1/3
f 101/2/3 98/2/3 100/2/3
f 102/1/3 99/1/3 101/1/3
f 109/1/3 104/1/3 103/1/3
f 109/1/3 108/1/3 107/1/3
f 109/1/3 107/1/3 106/1/3
f 109/1/3 106/1/3 105/1/3
f 109/1/3 105/1/3 104/1/3
f 110/1/3 108/1/3 109/1/3
f 115/1/3 112/1/3 111/1/3
f 116/1/3 112/1/3 115/1/3
f 117/2/3 113/2/3 112/2/3
f 117/1/3 112/1/3 116/1/3
f 118/1/3 114/1/3 113/1/3
f 118/2/3 113/2/3 117/2/3
f 119/1/3 114/1/3 118/1/3
f 123/2/3 121/2/3 120/2/3
f 124/1/3 122/1/3 121/1/3
f 124/2/3 121/2/3 123/2/3
f 125/1/3 122/1/3 124/1/3
f 126/1/4 127/1/4 130/1/4
f 130/1/4 127/1/4 131/1/4
f 127/2/4 128/2/4 132/2/4
f 131/1/4 127/1/4 132/1/4
f 128/1/4 129/1/4 133/1/4
f 132/2/4 128/2/4 133/2/4
f 133/1/4 129/1/4 134/1/4
f 135/1/4 136/1/4 139/1/4
f 136/1/4 137/1/4 139/1/4
f 137/2/4 138/2/4 140/2/4
f 139/1/4 137/1/4 140/1/4
f 140/2/4 138/2/4 141/2/4
f 142/2/4 143/2/4 145/2/4
f 143/1/4 144/1/4 146/1/4
f 145/2/4 143/2/4 146/2/4
f 146/1/4 144/1/4 147/1/4
f 147/1/4 144/1/4 148/1/4
f 148/1/4 144/1/4 149/1/4
f 150/2/4 151/2/4 154/2/4
f 152/1/4 153/1/4 155/1/4
f 154/2/4 151/2/4 155/2/4
f 151/1/4 152/1/4 155/1/4
f 155/1/4 153/1/4 156/1/4
f 157/2/4 158/2/4 162/2/4
f 158/1/4 159/1/4 163/1/4
f 162/2/4 158/2/4 163/2/4
f 159/2/4 160/2/4 164/2/4
f 163/1/4 159/1/4 164/1/4
f 164/2/4 160/2/4 165/2/4
f 160/1/4 161/1/4 166/1/4
f 165/2/4 160/2/4 166/2/4
f 166/1/4 161/1/4 167/1/4
f 164/1/4 165/1/4 168/1/4
f 162/1/4 163/1/4 168/1/4
f 163/1/4 164/1/4 168/1/4
f 166/2/4 167/2/4 169/2/4
f 168/1/4 165/1/4 169/1/4
f 165/2/4 166/2/4 169/2/4
f 169/2/4 167/2/4 170/2/4
f 174/1/5 172/1/5 171/1/5
f 175/1/5 172/1/5 174/1/5
f 178/2/5 174/2/5 173/2/5
f 179/4/5 175/4/5 174/4/5
f 179/2/5 174/2/5 178/2/5
f 180/1/5 176/1/5 175/1/5
f 180/4/5 175/4/5 179/4/5
f 181/1/5 176/1/5 180/1/5
f 183/4/5 181/4/5 180/4/5
f 183/2/5 182/2/5 181/2/5
f 184/2/5 182/2/5 183/2/5
f 185/1/5 178/1/5 177/1/5
f 186/4/5 179/4/5 178/4/5
f 186/1/5 178/1/5 185/1/5
f 187/3/5 180/3/5 179/3/5
f 187/4/5 179/4/5 186/4/5
f 188/3/5 180/3/5 187/3/5
f 189/4/5 183/4/5 180/4/5
f 189/3/5 180/3/5 188/3/5
f 190/1/5 184/1/5 183/1/5
f 190/4/5 183/4/5 189/4/5
f 191/1/5 184/1/5 190/1/5
f 192/2/5 188/2/5 187/2/5
f 192/2/5 187/2/5 186/2/5
f 193/2/5 188/2/5 192/2/5
f 194/4/5 189/4/5 188/4/5
f 194/2/5 188/2/5 193/2/5
f 195/2/5 190/2/5 189/2/5
f 195/4/5 189/4/5 194/4/5
f 196/2/5 190/2/5 195/2/5
f 197/2/5 194/2/5 193/2/5
f 198/1/5 195/1/5 194/1/5
f 198/2/5 194/2/5 197/2/5
f 199/1/5 195/1/5 198/1/5
f 200/1/6 201/1/6 203/1/6
f 203/1/6 201/1/6 204/1/6
f 202/1/6 203/1/6 207/1/6
f 203/4/6 204/4/6 208/4/6
f 207/1/6 203/1/6 208/1/6
f 204/1/6 205/1/6 209/1/6
f 208/4/6 204/4/6 209/4/6
f 209/1/6 205/1/6 210/1/6
f 209/4/6 210/4/6 212/4/6
f 210/1/6 211/1/6 212/1/6
f 212/1/6 211/1/6 213/1/6
f 206/1/6 207/1/6 214/1/6
f 207/4/6 208/4/6 215/4/6
f 214/1/6 207/1/6 215/1/6
f 208/3/6 209/3/6 216/3/6
f 215/4/6 208/4/6 216/4/6
f 209/4/6 212/4/6 217/4/6
f 216/3/6 209/3/6 217/3/6
f 212/2/6 213/2/6 218/2/6
f 217/4/6 212/4/6 218/4/6
f 218/2/6 213/2/6 219/2/6
f 215/1/6 216/1/6 220/1/6
f 216/4/6 217/4/6 221/4/6
f 220/1/6 216/1/6 221/1/6
f 221/4/6 217/4/6 222/4/6
f 217/1/6 218/1/6 223/1/6
f 222/4/6 217/4/6 223/4/6
f 223/1/6 218/1/6 224/1/6
f 221/1/6 222/1/6 225/1/6
f 222/2/6 223/2/6 226/2/6
f 225/1/6 222/1/6 226/1/6
f 226/2/6 223/2/6 227/2/6
