# MagicaVoxel @ Ephtracy

# group
o 

# material
mtllib TopSegment.mtl
usemtl palette

# normals
vn -1 0 0
vn 1 0 0
vn 0 0 1
vn 0 0 -1
vn 0 -1 0
vn 0 1 0

# texcoords
vt 0.908203 0.5
vt 0.939453 0.5

# verts
v 0.7 2 -0.7
v 0.7 2 -0.9
v 0.7 2.3 -0.8
v 0.7 2.3 -0.9
v 0.7 3.1 -0.8
v 0.7 3.1 -0.9
v 0.7 3.3 -0.7
v 0.7 3.3 -0.8
v 0.7 3.6 -0.7
v 0.7 3.6 -0.8
v 0.7 3.6 -0.9
v 0.9 2 -0.7
v 0.9 2 -0.8
v 0.9 2 -0.9
v 0.9 2.9 -0.7
v 0.9 2.9 -0.8
v 0.9 3.2 -0.8
v 0.9 3.2 -0.9
v 0.9 3.6 -0.7
v 0.9 3.6 -0.8
v 0.9 3.6 -0.9
v 0.7 2 -0.7
v 0.7 3.3 -0.7
v 0.7 3.6 -0.7
v 0.8 2 -0.7
v 0.8 2.9 -0.7
v 0.8 3.3 -0.7
v 0.8 3.6 -0.7
v 0.9 2 -0.7
v 0.9 2.9 -0.7
v 0.9 3.6 -0.7
v 0.7 2 -0.9
v 0.7 2.3 -0.9
v 0.7 3.1 -0.9
v 0.7 3.6 -0.9
v 0.8 2.3 -0.9
v 0.8 3.1 -0.9
v 0.8 3.2 -0.9
v 0.8 3.6 -0.9
v 0.9 2 -0.9
v 0.9 3.2 -0.9
v 0.9 3.6 -0.9
v 0.7 2 -0.7
v 0.8 2 -0.7
v 0.9 2 -0.7
v 0.8 2 -0.8
v 0.9 2 -0.8
v 0.7 2 -0.9
v 0.9 2 -0.9
v 0.7 3.6 -0.7
v 0.8 3.6 -0.7
v 0.9 3.6 -0.7
v 0.7 3.6 -0.8
v 0.8 3.6 -0.8
v 0.9 3.6 -0.8
v 0.7 3.6 -0.9
v 0.8 3.6 -0.9
v 0.9 3.6 -0.9

# faces
f 3/1/1 2/1/1 1/1/1
f 4/1/1 2/1/1 3/1/1
f 5/1/1 3/1/1 1/1/1
f 5/2/1 4/2/1 3/2/1
f 6/2/1 4/2/1 5/2/1
f 7/1/1 5/1/1 1/1/1
f 7/1/1 6/1/1 5/1/1
f 8/1/1 6/1/1 7/1/1
f 9/2/1 8/2/1 7/2/1
f 10/1/1 6/1/1 8/1/1
f 10/2/1 8/2/1 9/2/1
f 11/1/1 6/1/1 10/1/1
f 12/2/2 13/2/2 15/2/2
f 13/1/2 14/1/2 16/1/2
f 15/2/2 13/2/2 16/2/2
f 15/1/2 16/1/2 17/1/2
f 16/1/2 14/1/2 17/1/2
f 17/1/2 14/1/2 18/1/2
f 15/1/2 17/1/2 19/1/2
f 17/2/2 18/2/2 20/2/2
f 19/1/2 17/1/2 20/1/2
f 20/2/2 18/2/2 21/2/2
f 25/1/3 23/1/3 22/1/3
f 26/1/3 23/1/3 25/1/3
f 27/2/3 24/2/3 23/2/3
f 27/1/3 23/1/3 26/1/3
f 28/2/3 24/2/3 27/2/3
f 29/2/3 26/2/3 25/2/3
f 30/1/3 27/1/3 26/1/3
f 30/2/3 26/2/3 29/2/3
f 30/1/3 28/1/3 27/1/3
f 31/1/3 28/1/3 30/1/3
f 32/1/4 33/1/4 36/1/4
f 33/2/4 34/2/4 36/2/4
f 34/1/4 35/1/4 37/1/4
f 36/2/4 34/2/4 37/2/4
f 37/1/4 35/1/4 38/1/4
f 38/1/4 35/1/4 39/1/4
f 32/1/4 36/1/4 40/1/4
f 36/1/4 37/1/4 40/1/4
f 37/1/4 38/1/4 40/1/4
f 38/2/4 39/2/4 41/2/4
f 40/1/4 38/1/4 41/1/4
f 41/2/4 39/2/4 42/2/4
f 46/1/5 44/1/5 43/1/5
f 46/2/5 45/2/5 44/2/5
f 47/2/5 45/2/5 46/2/5
f 48/1/5 46/1/5 43/1/5
f 48/1/5 47/1/5 46/1/5
f 49/1/5 47/1/5 48/1/5
f 50/2/6 51/2/6 53/2/6
f 51/1/6 52/1/6 54/1/6
f 53/2/6 51/2/6 54/2/6
f 54/1/6 52/1/6 55/1/6
f 53/1/6 54/1/6 56/1/6
f 54/2/6 55/2/6 57/2/6
f 56/1/6 54/1/6 57/1/6
f 57/2/6 55/2/6 58/2/6
