# MagicaVoxel @ Ephtracy

# group
o 

# material
mtllib CornerOuter_A.mtl
usemtl palette

# normals
vn -1 0 0
vn 1 0 0
vn 0 0 1
vn 0 0 -1
vn 0 -1 0
vn 0 1 0

# texcoords
vt 0.806641 0.5
vt 0.962891 0.5

# verts
v 0 2 -1.3
v 0 2 -1.5
v 0 2 -1.6
v 0 2.4 -1.3
v 0 2.4 -1.5
v 0 6.4 -1.3
v 0 6.4 -1.5
v 0 6.8 -1.3
v 0 6.8 -1.5
v 0 6.8 -1.6
v 0.1 2.4 -1.5
v 0.1 2.4 -1.6
v 0.1 6.4 -1.5
v 0.1 6.4 -1.6
v 0.3 2 -1.3
v 0.3 2 -1.6
v 0.3 2.4 -1.3
v 0.3 2.4 -1.6
v 0.3 6.4 -1.3
v 0.3 6.4 -1.6
v 0.3 6.8 -1.3
v 0.3 6.8 -1.6
v 0 2 -1.3
v 0 2.4 -1.3
v 0 6.4 -1.3
v 0 6.8 -1.3
v 0.3 2 -1.3
v 0.3 2.4 -1.3
v 0.3 6.4 -1.3
v 0.3 6.8 -1.3
v 0 2.4 -1.5
v 0 6.4 -1.5
v 0.1 2.4 -1.5
v 0.1 6.4 -1.5
v 0 2 -1.6
v 0 6.8 -1.6
v 0.1 2.3 -1.6
v 0.1 2.4 -1.6
v 0.1 6.4 -1.6
v 0.1 6.5 -1.6
v 0.2 2 -1.6
v 0.2 2.3 -1.6
v 0.2 6.5 -1.6
v 0.2 6.8 -1.6
v 0.3 2 -1.6
v 0.3 2.4 -1.6
v 0.3 6.4 -1.6
v 0.3 6.8 -1.6
v 0 2 -1.3
v 0.3 2 -1.3
v 0.1 2 -1.4
v 0.2 2 -1.4
v 0 2 -1.5
v 0.1 2 -1.5
v 0 2 -1.6
v 0.2 2 -1.6
v 0.3 2 -1.6
v 0 6.4 -1.3
v 0.3 6.4 -1.3
v 0 6.4 -1.5
v 0.1 6.4 -1.5
v 0.1 6.4 -1.6
v 0.3 6.4 -1.6
v 0 2.4 -1.3
v 0.3 2.4 -1.3
v 0 2.4 -1.5
v 0.1 2.4 -1.5
v 0.1 2.4 -1.6
v 0.3 2.4 -1.6
v 0 6.8 -1.3
v 0.3 6.8 -1.3
v 0.1 6.8 -1.4
v 0.2 6.8 -1.4
v 0 6.8 -1.5
v 0.1 6.8 -1.5
v 0 6.8 -1.6
v 0.2 6.8 -1.6
v 0.3 6.8 -1.6

# faces
f 4/2/1 2/2/1 1/2/1
f 5/1/1 3/1/1 2/1/1
f 5/2/1 2/2/1 4/2/1
f 7/1/1 3/1/1 5/1/1
f 8/2/1 7/2/1 6/2/1
f 9/1/1 3/1/1 7/1/1
f 9/2/1 7/2/1 8/2/1
f 10/1/1 3/1/1 9/1/1
f 11/1/2 12/1/2 13/1/2
f 13/1/2 12/1/2 14/1/2
f 15/2/2 16/2/2 17/2/2
f 17/2/2 16/2/2 18/2/2
f 19/2/2 20/2/2 21/2/2
f 21/2/2 20/2/2 22/2/2
f 27/2/3 24/2/3 23/2/3
f 28/2/3 24/2/3 27/2/3
f 29/2/3 26/2/3 25/2/3
f 30/2/3 26/2/3 29/2/3
f 33/1/3 32/1/3 31/1/3
f 34/1/3 32/1/3 33/1/3
f 35/1/4 36/1/4 37/1/4
f 37/1/4 36/1/4 38/1/4
f 38/1/4 36/1/4 39/1/4
f 39/1/4 36/1/4 40/1/4
f 35/1/4 37/1/4 41/1/4
f 37/2/4 38/2/4 42/2/4
f 41/1/4 37/1/4 42/1/4
f 40/1/4 36/1/4 43/1/4
f 39/2/4 40/2/4 43/2/4
f 43/1/4 36/1/4 44/1/4
f 41/2/4 42/2/4 45/2/4
f 42/2/4 38/2/4 46/2/4
f 45/2/4 42/2/4 46/2/4
f 39/2/4 43/2/4 47/2/4
f 43/2/4 44/2/4 47/2/4
f 47/2/4 44/2/4 48/2/4
f 51/2/5 50/2/5 49/2/5
f 52/2/5 50/2/5 51/2/5
f 53/2/5 51/2/5 49/2/5
f 54/1/5 52/1/5 51/1/5
f 54/2/5 51/2/5 53/2/5
f 55/1/5 54/1/5 53/1/5
f 56/2/5 50/2/5 52/2/5
f 56/1/5 54/1/5 55/1/5
f 56/1/5 52/1/5 54/1/5
f 57/2/5 50/2/5 56/2/5
f 60/2/5 59/2/5 58/2/5
f 61/2/5 59/2/5 60/2/5
f 62/2/5 59/2/5 61/2/5
f 63/2/5 59/2/5 62/2/5
f 64/2/6 65/2/6 66/2/6
f 66/2/6 65/2/6 67/2/6
f 67/2/6 65/2/6 68/2/6
f 68/2/6 65/2/6 69/2/6
f 70/2/6 71/2/6 72/2/6
f 72/2/6 71/2/6 73/2/6
f 70/2/6 72/2/6 74/2/6
f 72/1/6 73/1/6 75/1/6
f 74/2/6 72/2/6 75/2/6
f 74/1/6 75/1/6 76/1/6
f 73/2/6 71/2/6 77/2/6
f 76/1/6 75/1/6 77/1/6
f 75/1/6 73/1/6 77/1/6
f 77/2/6 71/2/6 78/2/6
